<?xml version="1.0" encoding="UTF-8" standalone="no"?>
<!-- Generator: Adobe Illustrator 16.0.3, SVG Export Plug-In . SVG Version: 6.00 Build 0)  -->

<svg
   version="1.1"
   id="Capa_1"
   x="0px"
   y="0px"
   width="420pt"
   height="880"
   viewBox="-2200 0 6000.502 720"
   enable-background="new 0 0 612 792"
   xml:space="preserve"
   sodipodi:docname="Logo de Gymlife.svg"
   inkscape:version="1.1 (c68e22c387, 2021-05-23)"
   xmlns:inkscape="http://www.inkscape.org/namespaces/inkscape"
   xmlns:sodipodi="http://sodipodi.sourceforge.net/DTD/sodipodi-0.dtd"
   xmlns="http://www.w3.org/2000/svg"
   xmlns:svg="http://www.w3.org/2000/svg"><defs
   id="defs29" /><sodipodi:namedview
   id="namedview27"
   pagecolor="#ffffff"
   bordercolor="#666666"
   borderopacity="1.0"
   inkscape:pageshadow="2"
   inkscape:pageopacity="0.0"
   inkscape:pagecheckerboard="0"
   showgrid="false"
   fit-margin-top="0"
   fit-margin-left="0"
   fit-margin-right="0"
   fit-margin-bottom="0"
   inkscape:zoom="0.13131313"
   inkscape:cx="1214.6538"
   inkscape:cy="1389.8077"
   inkscape:window-width="1920"
   inkscape:window-height="1017"
   inkscape:window-x="1912"
   inkscape:window-y="-8"
   inkscape:window-maximized="1"
   inkscape:current-layer="Capa_1" />
<g
   id="g24"
   transform="matrix(3.2370172,0,0,3.2370172,901.42943,-923.22179)">
	<g
   id="g22">

		<path
   fill-rule="evenodd"
   clip-rule="evenodd"
   fill="#fff"
   d="m -135.665,396.466 c -0.727,-0.415 -1.626,-0.196 -2.485,-0.196 -17.2,-0.015 -34.399,-0.011 -51.599,-0.011 -3.161,0 -2.892,0.171 -2.893,-2.81 -0.005,-8.08 -0.004,-16.16 0,-24.239 0.001,-2.493 -0.216,-2.406 2.277,-2.406 29.04,0.001 58.079,0.001 87.119,0.001 0.24,0 0.482,0.023 0.719,-0.002 1.081,-0.12 1.702,0.226 1.559,1.441 -0.046,0.394 -0.005,0.799 -0.005,1.199 0,19.52 -0.015,39.039 0.028,58.559 0.003,1.531 -0.42,2.709 -1.363,3.91 -6.967,8.877 -15.637,15.699 -25.438,21.137 -12.735,7.066 -26.422,11.119 -40.872,12.712 -5.399,0.595 -10.809,0.992 -16.241,0.868 -13.711,-0.313 -26.9,-3.067 -39.498,-8.558 -9.523,-4.15 -18.226,-9.608 -25.894,-16.61 -9.88,-9.022 -17.424,-19.719 -22.221,-32.258 -3.413,-8.922 -5.236,-18.16 -5.807,-27.72 -0.785,-13.141 0.769,-25.932 4.933,-38.389 4.39,-13.135 11.646,-24.498 21.854,-33.869 10.431,-9.576 22.687,-15.899 36.286,-19.682 8.569,-2.384 17.298,-3.714 26.193,-4.083 2.551,-0.106 5.1,-0.286 7.653,-0.247 10.999,0.17 21.803,1.571 32.223,5.266 9.126,3.236 17.426,7.854 24.625,14.435 6.897,6.306 12.044,13.776 15.725,22.321 0.397,0.923 0.302,1.334 -0.631,1.837 -5.48,2.952 -10.915,5.989 -16.368,8.99 -4.195,2.309 -8.376,4.643 -12.603,6.892 -1.655,0.88 -1.465,1.116 -2.551,-0.654 -3.101,-5.056 -6.604,-9.8 -10.893,-13.923 -7.224,-6.944 -15.634,-11.768 -25.691,-12.751 -13.983,-1.367 -27.082,1.226 -38.229,10.46 -6.555,5.43 -11.058,12.332 -13.935,20.304 -2.204,6.105 -3.454,12.397 -3.967,18.885 -0.909,11.511 -0.024,22.78 4,33.669 4.024,10.89 10.866,19.45 21.179,25.047 5.91,3.208 12.269,4.939 18.924,5.604 9.396,0.939 18.654,0.059 27.755,-2.399 8.955,-2.418 17.209,-6.303 24.612,-11.949 1.041,-0.794 1.569,-1.621 1.553,-2.99 -0.072,-5.908 -0.033,-11.815 -0.033,-17.791 z"
   id="path4" />
		<path
   fill-rule="evenodd"
   clip-rule="evenodd"
   fill="#fff"
   d="m 105.758,364.363 c 1.124,-1.921 2.169,-3.894 3.386,-5.754 6.956,-10.639 16.768,-16.839 29.321,-18.744 8.786,-1.334 17.494,-1.147 26.073,1.363 10.302,3.014 17.718,9.54 22.773,18.882 0.948,1.751 1.754,3.58 2.691,5.508 1.543,-2.327 2.919,-4.625 4.51,-6.762 9.389,-12.612 22.07,-18.856 37.688,-19.644 6.118,-0.308 12.106,0.11 18.021,1.599 12.638,3.182 21.45,10.855 26.573,22.811 2.439,5.692 3.707,11.653 4.348,17.797 0.416,3.985 0.441,7.965 0.442,11.955 0.005,21.119 0.006,42.238 -10e-4,63.357 -0.001,3.127 0.321,2.884 -2.79,2.886 -11.6,0.007 -23.199,0.003 -34.798,0.002 -0.48,0 -0.96,-0.019 -1.44,-0.003 -0.908,0.029 -1.318,-0.392 -1.277,-1.304 0.028,-0.638 0,-1.279 0,-1.919 0,-20.159 0.012,-40.318 -0.009,-60.478 -0.005,-5.148 -0.779,-10.162 -2.812,-14.948 -2.568,-6.046 -7.064,-9.795 -13.45,-11.102 -7.687,-1.573 -14.977,-0.612 -21.375,4.288 -4.655,3.564 -7.062,8.568 -8.432,14.116 -0.825,3.339 -1.124,6.755 -1.122,10.203 0.015,19.199 0.007,38.398 0.007,57.598 0,0.479 0.006,0.96 -0.001,1.44 -0.034,2.073 -0.036,2.103 -2.154,2.104 -11.839,0.01 -23.679,0.007 -35.519,0.002 -2.48,-10e-4 -2.492,-0.013 -2.493,-2.487 -0.003,-19.279 0.011,-38.558 -0.01,-57.837 -0.005,-5.032 -0.268,-10.042 -1.704,-14.92 -2.932,-9.957 -9.247,-14.584 -19.403,-15.142 -5.374,-0.295 -10.459,0.857 -15.062,3.85 -4.278,2.782 -6.96,6.76 -8.731,11.409 -1.546,4.058 -2.296,8.282 -2.292,12.645 0.019,19.76 0.008,39.519 0.008,59.277 0,0.641 -0.03,1.281 0,1.92 0.043,0.928 -0.405,1.311 -1.296,1.284 -0.479,-0.015 -0.959,0.003 -1.439,0.003 -11.6,0.001 -23.199,0.001 -34.798,0.001 -0.32,0 -0.641,0.008 -0.96,-0.003 -1.746,-0.054 -1.749,-0.056 -1.811,-1.705 -0.015,-0.399 -0.004,-0.8 -0.004,-1.2 0,-37.038 -0.002,-74.076 0.004,-111.114 0,-3.264 -0.333,-2.967 2.944,-2.971 11.039,-0.009 22.078,-0.003 33.117,-0.003 0.48,0 0.963,0.04 1.439,-0.003 1.153,-0.105 1.535,0.415 1.521,1.54 -0.044,3.679 -0.015,7.359 -0.014,11.039 0,3.032 0,6.064 0,9.096 0.11,0.022 0.22,0.045 0.331,0.068 z"
   id="path6" />
		<path
   fill-rule="evenodd"
   clip-rule="evenodd"
   fill="#fff"
   d="m -94.639,342.896 c 0.881,-0.386 1.53,-0.267 2.161,-0.268 13.277,-0.008 26.553,-0.013 39.83,0 2.362,0.002 2.152,-0.326 3.068,2.076 7.196,18.856 14.405,37.708 21.61,56.561 3.133,8.197 6.228,16.41 9.044,24.724 0.126,0.372 0.194,0.782 0.633,1.021 0.83,-0.729 0.73,-1.838 1.058,-2.754 3.671,-10.288 7.241,-20.612 10.944,-30.888 4.191,-11.629 8.487,-23.22 12.744,-34.825 1.731,-4.719 3.504,-9.422 5.202,-14.152 0.422,-1.176 0.93,-1.809 2.359,-1.802 12.876,0.06 25.753,0.036 38.63,0.042 0.311,0 0.622,0.072 1.108,0.132 -0.639,2.643 -1.928,4.932 -2.948,7.304 -7.466,17.373 -15.001,34.716 -22.509,52.07 -8.965,20.719 -17.963,41.424 -26.867,62.169 -3.355,7.818 -7.353,15.222 -12.729,21.854 -8.901,10.979 -20.512,17.232 -34.255,19.859 -8.768,1.677 -17.602,1.815 -26.481,1.45 -3.675,-0.15 -7.311,-0.606 -10.956,-1.014 -2.24,-0.25 -2.267,-0.303 -2.27,-2.443 -0.009,-8.638 -0.012,-17.275 0.002,-25.913 0.003,-1.997 0.033,-1.969 2.047,-1.653 7.767,1.218 15.553,1.676 23.342,0.257 5.353,-0.975 10.269,-3.004 14.379,-6.654 2.716,-2.412 4.826,-5.256 5.871,-8.84 0.369,-1.265 0.232,-2.291 -0.314,-3.414 -1.851,-3.807 -3.658,-7.634 -5.479,-11.455 -6.421,-13.478 -12.833,-26.96 -19.265,-40.433 -3.783,-7.926 -7.61,-15.831 -11.397,-23.753 -5.99,-12.532 -11.964,-25.071 -17.938,-37.61 -0.233,-0.495 -0.39,-1.027 -0.624,-1.648 z"
   id="path12" />

	</g>
</g>
</svg>
